<svg width="85" height="22" viewBox="0 0 85 22" fill="none" xmlns="http://www.w3.org/2000/svg">
<path d="M12.8129 9.36C13.8729 9.78 14.7329 10.42 15.3929 11.28C16.0729 12.14 16.4129 13.25 16.4129 14.61C16.4129 16.99 15.7329 18.65 14.3729 19.59C13.0129 20.53 11.3929 21 9.51289 21H2.04289C1.52289 21 1.08289 20.83 0.722891 20.49C0.382891 20.13 0.212891 19.69 0.212891 19.17V1.83C0.212891 1.31 0.382891 0.879999 0.722891 0.539999C1.08289 0.179999 1.52289 -1.43051e-06 2.04289 -1.43051e-06H9.60289C13.4029 -1.43051e-06 15.3029 1.78 15.3029 5.34C15.3029 6.24 15.0829 7.04 14.6429 7.74C14.2229 8.42 13.6129 8.96 12.8129 9.36ZM11.4029 6C11.4029 5.18 11.1929 4.57 10.7729 4.17C10.3729 3.75 9.80289 3.54 9.06289 3.54H4.11289V8.22H9.15289C9.75289 8.22 10.2729 8.02 10.7129 7.62C11.1729 7.22 11.4029 6.68 11.4029 6ZM9.51289 17.55C10.4529 17.55 11.1829 17.3 11.7029 16.8C12.2429 16.3 12.5129 15.57 12.5129 14.61C12.5129 13.43 12.2029 12.66 11.5829 12.3C10.9629 11.94 10.2029 11.76 9.30289 11.76H4.11289V17.55H9.51289ZM46.5788 4.65C48.6188 4.65 50.0288 5.26 50.8088 6.48C51.5888 7.68 51.9788 9.35 51.9788 11.49V19.17C51.9788 19.69 51.8088 20.13 51.4688 20.49C51.1288 20.83 50.6988 21 50.1788 21C49.6588 21 49.2288 20.83 48.8888 20.49C48.5488 20.13 48.3788 19.69 48.3788 19.17V11.49C48.3788 10.39 48.1488 9.53 47.6888 8.91C47.2288 8.27 46.4388 7.95 45.3188 7.95C44.1588 7.95 43.2488 8.29 42.5888 8.97C41.9288 9.63 41.5988 10.47 41.5988 11.49V19.17C41.5988 19.69 41.4288 20.13 41.0888 20.49C40.7488 20.83 40.3188 21 39.7988 21C39.2788 21 38.8488 20.83 38.5088 20.49C38.1688 20.13 37.9988 19.69 37.9988 19.17V6.78C37.9988 6.26 38.1688 5.83 38.5088 5.49C38.8488 5.13 39.2788 4.95 39.7988 4.95C40.3188 4.95 40.7488 5.13 41.0888 5.49C41.4288 5.83 41.5988 6.26 41.5988 6.78V7.29C42.1388 6.57 42.8388 5.95 43.6988 5.43C44.5788 4.91 45.5388 4.65 46.5788 4.65ZM67.7799 4.95C68.2999 4.95 68.7299 5.13 69.0699 5.49C69.4099 5.83 69.5799 6.26 69.5799 6.78V14.4C69.5799 16.56 68.9799 18.25 67.7799 19.47C66.5999 20.69 64.9099 21.3 62.7099 21.3C60.5099 21.3 58.8199 20.69 57.6399 19.47C56.4599 18.25 55.8699 16.56 55.8699 14.4V6.78C55.8699 6.26 56.0399 5.83 56.3799 5.49C56.7199 5.13 57.1499 4.95 57.6699 4.95C58.1899 4.95 58.6199 5.13 58.9599 5.49C59.2999 5.83 59.4699 6.26 59.4699 6.78V14.4C59.4699 15.62 59.7399 16.53 60.2799 17.13C60.8199 17.71 61.6299 18 62.7099 18C63.8099 18 64.6299 17.71 65.1699 17.13C65.7099 16.53 65.9799 15.62 65.9799 14.4V6.78C65.9799 6.26 66.1499 5.83 66.4899 5.49C66.8299 5.13 67.2599 4.95 67.7799 4.95ZM72.5473 18.51C72.3673 18.27 72.2773 17.97 72.2773 17.61C72.2773 17.09 72.5373 16.65 73.0573 16.29C73.3373 16.11 73.6273 16.02 73.9273 16.02C74.3473 16.02 74.7473 16.21 75.1273 16.59C75.7273 17.21 76.3473 17.67 76.9873 17.97C77.6473 18.27 78.4373 18.42 79.3573 18.42C80.9173 18.36 81.6973 17.77 81.6973 16.65C81.6973 16.07 81.4273 15.63 80.8873 15.33C80.3673 15.03 79.5473 14.73 78.4273 14.43C77.2673 14.11 76.3173 13.79 75.5773 13.47C74.8573 13.15 74.2273 12.67 73.6873 12.03C73.1673 11.37 72.9073 10.49 72.9073 9.39C72.9073 8.43 73.1773 7.6 73.7173 6.9C74.2773 6.18 74.9973 5.63 75.8773 5.25C76.7773 4.85 77.7273 4.65 78.7273 4.65C79.7473 4.65 80.7673 4.84 81.7873 5.22C82.8073 5.6 83.6073 6.16 84.1873 6.9C84.4473 7.22 84.5773 7.58 84.5773 7.98C84.5773 8.44 84.3873 8.82 84.0073 9.12C83.7273 9.34 83.4073 9.45 83.0473 9.45C82.6073 9.45 82.2473 9.31 81.9673 9.03C81.6073 8.59 81.1373 8.24 80.5573 7.98C79.9973 7.72 79.3573 7.59 78.6373 7.59C77.1173 7.59 76.3573 8.14 76.3573 9.24C76.3573 9.68 76.4973 10.04 76.7773 10.32C77.0573 10.58 77.4073 10.79 77.8273 10.95C78.2673 11.09 78.8773 11.27 79.6573 11.49C80.7373 11.79 81.6373 12.1 82.3573 12.42C83.0773 12.74 83.6873 13.23 84.1873 13.89C84.6873 14.55 84.9373 15.42 84.9373 16.5C84.9373 17.48 84.6473 18.34 84.0673 19.08C83.4873 19.8 82.7373 20.35 81.8173 20.73C80.9173 21.11 79.9873 21.3 79.0273 21.3C77.7073 21.3 76.4773 21.08 75.3373 20.64C74.1973 20.2 73.2673 19.49 72.5473 18.51Z" fill="black"/>
<path d="M34.9911 12.99C34.9911 14.59 34.6311 16.03 33.9111 17.31C33.1911 18.57 32.2011 19.55 30.9411 20.25C29.7011 20.95 28.3311 21.3 26.8311 21.3C25.3111 21.3 23.9311 20.95 22.6911 20.25C21.4511 19.55 20.4711 18.57 19.7511 17.31C19.0311 16.03 18.6711 14.59 18.6711 12.99C18.6711 11.39 19.0311 9.96 19.7511 8.7C20.4711 7.42 21.4511 6.43 22.6911 5.73C23.9311 5.01 25.3111 4.65 26.8311 4.65C28.3311 4.65 29.7011 5.01 30.9411 5.73C32.2011 6.43 33.1911 7.42 33.9111 8.7C34.6311 9.96 34.9911 11.39 34.9911 12.99ZM31.3911 12.99C31.3911 12.01 31.1811 11.14 30.7611 10.38C30.3611 9.6 29.8111 9 29.1111 8.58C28.4311 8.16 27.6711 7.95 26.8311 7.95C25.9911 7.95 25.2211 8.16 24.5211 8.58C23.8411 9 23.2911 9.6 22.8711 10.38C22.4711 11.14 22.2711 12.01 22.2711 12.99C22.2711 13.97 22.4711 14.84 22.8711 15.6C23.2911 16.36 23.8411 16.95 24.5211 17.37C25.2211 17.79 25.9911 18 26.8311 18C27.6711 18 28.4311 17.79 29.1111 17.37C29.8111 16.95 30.3611 16.36 30.7611 15.6C31.1811 14.84 31.3911 13.97 31.3911 12.99Z" fill="#33CC66"/>
</svg>
